HIERARCHY
ROOT Hips
{
	OFFSET -0.179506 -22.333345 2.821913
	CHANNELS 6 Xposition Yposition Zposition Zrotation Yrotation Xrotation 
	JOINT LeftUpLeg
	{
		OFFSET 6.951974 -9.140623 -0.681533
		CHANNELS 3 Zrotation Yrotation Xrotation
		JOINT LeftLeg
		{
			OFFSET 3.427654 -37.519855 -0.449580
			CHANNELS 3 Zrotation Yrotation Xrotation
			JOINT LeftFoot
			{
				OFFSET -1.359570 -39.796059 -4.369333
				CHANNELS 3 Zrotation Yrotation Xrotation
				JOINT LeftToe
				{
					OFFSET 2.635814 -5.579078 11.928840
					CHANNELS 3 Zrotation Yrotation Xrotation
					End Site
					{
						OFFSET 0.000000 0.000000 0.000000
					}
				}
			}
		}
	}
	JOINT RightUpLeg
	{
		OFFSET -6.767048 -9.052170 -0.431982
		CHANNELS 3 Zrotation Yrotation Xrotation
		JOINT RightLeg
		{
			OFFSET -3.829005 -38.256897 -0.885003
			CHANNELS 3 Zrotation Yrotation Xrotation
			JOINT RightFoot
			{
				OFFSET 1.577377 -39.841461 -4.231180
				CHANNELS 3 Zrotation Yrotation Xrotation
				JOINT RightToe
				{
					OFFSET -2.537174 -4.814398 12.334795
					CHANNELS 3 Zrotation Yrotation Xrotation
					End Site
					{
						OFFSET 0.000000 0.000000 0.000000
					}
				}
			}
		}
	}
	JOINT Spine
	{
		OFFSET -0.253288 10.896323 -2.669631
		CHANNELS 3 Zrotation Yrotation Xrotation
		JOINT Spine1
		{
			OFFSET 0.548704 13.518043 0.109247
			CHANNELS 3 Zrotation Yrotation Xrotation
			JOINT Spine2
			{
				OFFSET 0.145701 5.292222 2.542457
				CHANNELS 3 Zrotation Yrotation Xrotation
				JOINT Neck
				{
					OFFSET -0.277840 21.387037 -4.285703
					CHANNELS 3 Zrotation Yrotation Xrotation
					JOINT Head
					{
						OFFSET 0.515184 6.496960 5.134897
						CHANNELS 3 Zrotation Yrotation Xrotation
						End Site
						{
							OFFSET 0.000000 0.000000 0.000000
						}
					}
				}
				JOINT LeftShoulder
				{
					OFFSET 7.884473 12.174932 -3.408961
					CHANNELS 3 Zrotation Yrotation Xrotation
					JOINT LeftArm
					{
						OFFSET 9.097692 3.046888 -0.886815
						CHANNELS 3 Zrotation Yrotation Xrotation
						JOINT LeftForeArm
						{
							OFFSET 25.961220 -1.277207 -2.745643
							CHANNELS 3 Zrotation Yrotation Xrotation
							JOINT LeftHand
							{
								OFFSET 24.923361 0.898606 -0.117091
								CHANNELS 3 Zrotation Yrotation Xrotation
								End Site
								{
									OFFSET 0.000000 0.000000 0.000000
								}
							}
						}
					}
				}
				JOINT RightShoulder
				{
					OFFSET -8.175920 11.883285 -3.861528
					CHANNELS 3 Zrotation Yrotation Xrotation
					JOINT RightArm
					{
						OFFSET -9.601238 3.255117 -0.914307
						CHANNELS 3 Zrotation Yrotation Xrotation
						JOINT RightForeArm
						{
							OFFSET -25.374195 -1.332924 -2.140099
							CHANNELS 3 Zrotation Yrotation Xrotation
							JOINT RightHand
							{
								OFFSET -25.529810 0.777228 -0.555919
								CHANNELS 3 Zrotation Yrotation Xrotation
								End Site
								{
									OFFSET 0.000000 0.000000 0.000000
								}
							}
						}
					}
				}
			}
		}
	}
}
MOTION
Frames: 10
Frame Time: 0.033333
2.295309 -264.857788 90.949692 -127.703624 3.493604 85.490541 16.037851 6.244269 2.035931 -5.640168 -3.262449 19.866034 0.760921 11.482893 -27.835861 nan nan nan -12.447619 -12.043410 -11.711479 1.850065 -16.668484 18.042266 3.404847 -8.442490 -7.312613 nan nan nan -8.662632 1.670749 -0.814895 7.981211 -5.694626 15.119320 1.582269 0.169150 -6.493756 4.923016 -11.936050 18.908707 7.469615 -13.420853 15.496491 -17.725833 -10.689299 5.951476 -63.886478 -45.323101 33.069649 162.569357 -74.596325 -139.056265 0.615245 -22.827887 -1.844366 19.221888 6.707063 0.253020 40.503379 19.262746 -2.371095 -87.997970 54.411813 -68.608538 -6.448036 9.375854 -5.109832 
2.273511 -264.781372 90.899139 -127.754792 3.470988 85.367194 16.162967 6.185594 2.260029 -5.607729 -2.969692 19.770336 0.946340 11.069456 -27.721739 nan nan nan -12.522817 -11.998511 -11.622963 1.746609 -16.807347 18.283406 3.095347 -8.036982 -7.367870 nan nan nan -8.367103 0.765677 1.165602 7.520657 -6.294920 14.962703 0.960339 1.190701 -9.030647 6.305614 -11.197321 18.324192 6.350996 -14.067853 16.954785 -16.274213 -7.850951 5.302454 -67.370991 -44.954108 36.256454 162.396791 -74.901822 -139.872429 0.243465 -23.638752 -1.209602 19.355217 5.408096 0.056997 41.964317 20.047398 0.144624 -87.447464 54.119265 -67.377724 -6.801792 9.837752 -4.799820 
2.232797 -264.766479 90.897285 -127.738625 3.518756 85.282870 16.232273 6.125525 2.424989 -5.601504 -2.928528 19.661330 0.926125 11.047353 -27.682982 nan nan nan -12.534744 -12.051538 -11.481172 1.804492 -16.734715 18.250552 3.194704 -8.064875 -7.269133 nan nan nan -8.241359 0.816844 1.134291 7.451922 -6.270947 14.967151 0.941224 1.152235 -8.868574 6.458514 -11.234407 18.170395 6.274769 -14.136371 16.998955 -16.284953 -7.945382 5.319455 -67.460416 -45.011035 36.313392 162.362322 -75.011421 -140.357952 0.404476 -23.796997 -0.736382 19.242388 5.380391 -0.085802 42.074562 19.966346 0.094665 -87.498319 54.216875 -67.551045 -6.958497 9.908479 -4.638045 
2.208825 -264.771057 90.895721 -127.682571 3.515665 85.291578 16.202854 6.082473 2.388369 -5.636028 -2.949129 19.672783 0.932923 11.168053 -27.700819 nan nan nan -12.549600 -12.091336 -11.481824 1.801184 -16.773039 18.234231 3.182714 -8.139377 -7.328458 nan nan nan -8.222650 0.808953 1.066767 7.420025 -6.274622 14.994770 0.942253 1.143266 -8.778055 6.467726 -11.289587 17.994279 6.253666 -14.123742 17.142052 -16.285803 -7.907337 5.280463 -67.535142 -45.080097 36.395492 162.441052 -75.016854 -140.702056 0.251389 -23.757679 -0.516894 19.237610 5.283415 -0.130755 42.070204 20.055272 0.069743 -87.552157 54.292492 -67.738580 -6.847739 9.882241 -4.408894 
2.200566 -264.759430 90.899460 -127.669752 3.502737 85.310149 16.216551 6.123356 2.394794 -5.661599 -2.977281 19.623918 0.945252 11.173435 -27.701656 nan nan nan -12.516175 -12.108435 -11.570505 1.713837 -16.765210 18.355802 3.155365 -8.195207 -7.393839 nan nan nan -8.259564 0.755579 1.065388 7.403143 -6.262657 14.971303 0.940308 1.177644 -8.764401 6.488645 -11.268800 17.865019 6.250003 -14.112176 17.305961 -16.262675 -7.834343 5.240439 -67.499015 -45.113074 36.447140 162.510720 -74.962188 -140.883708 0.071950 -23.669842 -0.454564 19.277634 5.238645 -0.121391 42.115770 20.097313 0.141592 -87.609368 54.241265 -67.899154 -6.723139 9.871928 -4.504049 
2.190051 -264.758453 90.889771 -127.653009 3.570991 85.244807 16.320890 6.219905 2.454171 -5.868786 -3.558383 19.573103 1.232872 11.743492 -27.482056 nan nan nan -12.415684 -12.122333 -11.585628 1.925189 -16.060737 18.345436 2.977036 -9.057161 -7.222961 nan nan nan -8.186950 0.825983 1.402794 7.649455 -6.175509 14.139595 0.939474 1.077023 -8.205520 5.623831 -12.150625 17.853443 6.267415 -12.971871 17.550127 -15.138356 -7.634187 4.697436 -66.757699 -43.924243 35.457726 165.244236 -71.952953 -135.547151 -2.888416 -17.651100 -5.431830 18.979865 5.028589 -0.554576 42.616013 20.180487 1.083832 -87.299270 53.705346 -65.680012 -2.421400 6.377124 -7.621689 
2.142934 -264.741730 90.894951 -127.602965 3.632650 85.269060 16.391863 6.254327 2.451386 -5.877941 -3.659038 19.519754 1.184484 11.764925 -27.441309 nan nan nan -12.386393 -12.158943 -11.544191 2.008972 -16.006337 18.265783 3.085163 -9.214931 -7.075648 nan nan nan -8.141997 0.922524 1.512241 7.734314 -6.036508 13.428813 1.060096 0.934376 -7.665837 5.315894 -12.399853 17.941621 6.422414 -12.798583 17.513430 -15.334628 -7.913830 4.648788 -66.462954 -43.804987 35.285014 165.454249 -72.032322 -134.940450 -2.292187 -17.580280 -6.447491 18.901635 4.992189 -0.737008 42.556655 20.002453 0.890867 -87.456743 53.879225 -65.495290 -2.663176 6.253497 -7.643915 
2.102561 -264.722015 90.888123 -127.607341 3.629412 85.287674 16.416576 6.256081 2.490330 -5.902338 -3.602420 19.452100 1.140777 11.697999 -27.420094 nan nan nan -12.423861 -12.150645 -11.563684 2.023638 -16.036258 18.310274 3.155616 -9.197322 -7.047845 nan nan nan -8.147982 1.005101 1.378665 7.759166 -5.991396 13.490652 1.085114 0.875107 -7.630519 5.279844 -12.423596 17.959490 6.449263 -12.861381 17.494908 -15.355167 -8.013651 4.651084 -66.419195 -43.818940 35.276631 165.293422 -72.066573 -134.637449 -2.204896 -17.651838 -6.513722 18.854073 4.956872 -0.830213 42.563849 19.927581 0.883484 -87.529245 53.859480 -65.458133 -2.811851 6.342758 -7.565907 
2.064593 -264.697540 90.892090 -127.606021 3.568944 85.286602 16.384640 6.226992 2.541080 -5.756716 -3.163864 19.459853 0.916532 11.179095 -27.573319 nan nan nan -12.530749 -12.151413 -11.566600 1.765669 -16.641117 18.540584 3.324175 -8.504645 -7.150880 nan nan nan -8.213523 0.940286 0.985105 7.557429 -6.084045 14.569612 1.035406 0.990131 -8.292442 6.200221 -11.588985 17.796821 6.314600 -13.956062 17.417356 -16.144184 -8.232404 5.063207 -67.103022 -44.883385 36.107126 162.728398 -74.696180 -138.618525 0.595914 -22.982578 -2.749146 19.083140 5.148533 -0.561525 42.277248 19.834411 0.192687 -87.965061 54.166257 -67.423060 -6.786571 9.453189 -5.023777 
2.043962 -264.678101 90.888359 -127.586107 3.624456 85.158311 16.525081 6.181830 2.730868 -6.015171 -3.533064 19.358833 1.179357 11.525375 -27.327485 nan nan nan -12.468182 -12.102678 -11.458140 1.820676 -16.303760 18.551379 2.867565 -8.869723 -7.200881 nan nan nan -8.168179 0.935517 1.115518 7.624319 -6.221474 14.906765 0.985298 1.098014 -8.625923 6.001304 -11.919429 17.867471 6.279904 -13.426677 17.259573 -14.982755 -7.734854 4.745367 -67.223273 -43.984472 35.749519 163.363789 -71.932737 -134.810589 -4.694132 -18.470583 -4.422817 18.894700 4.981481 -0.795852 42.729040 19.955641 1.074311 -87.685993 53.691709 -65.873740 0.103735 6.534076 -6.399666 
